<svg xmlns="http://www.w3.org/2000/svg" width="62" height="62" fill="none" viewBox="0 0 62 62">
  <path fill="#111" d="M46.5 38.75h-31L5.167 49.083V7.75A2.583 2.583 0 0 1 7.75 5.167H46.5a2.583 2.583 0 0 1 2.583 2.583v28.417A2.584 2.584 0 0 1 46.5 38.75Zm12.917-15.5v36.167L49.083 49.083H20.667a2.583 2.583 0 0 1-2.584-2.583v-2.583H54.25v-23.25h2.583a2.584 2.584 0 0 1 2.584 2.583Zm-38.26-12.917c-2.247 0-4.055.517-5.45 1.524-1.344 1.06-2.015 2.532-1.99 4.573l.026.078h4.986c.026-.775.259-1.37.724-1.783a2.583 2.583 0 0 1 1.704-.594c.801 0 1.473.258 1.938.723.465.491.672 1.163.672 1.938 0 .826-.181 1.524-.595 2.118-.361.594-.904 1.11-1.575 1.524-1.318.878-2.222 1.653-2.713 2.351-.517.672-.8 1.757-.8 3.048h5.166c0-.8.103-1.446.336-1.911.232-.465.672-.93 1.317-1.344 1.163-.62 2.119-1.369 2.868-2.402.749-1.034 1.136-2.093 1.136-3.384 0-1.964-.697-3.54-2.092-4.702-1.37-1.162-3.255-1.757-5.658-1.757Zm-3.074 18.084v5.166h5.167v-5.166h-5.167Zm15.5 5.166h5.167v-5.166h-5.167v5.166Zm0-23.25v15.5h5.167v-15.5h-5.167Z"/>
</svg>
